<svg width="57" height="66" viewBox="0 0 57 66" fill="none" xmlns="http://www.w3.org/2000/svg">
<path d="M44.3234 48.5664L55.8762 22.5698H55.8719C56.9108 20.1429 56.4495 18.2981 54.7166 17.4877C52.7552 16.4488 50.9059 17.3713 49.7506 19.7981C48.3626 22.8025 45.9356 28.3458 44.8968 30.7726C44.6683 31.3502 43.8579 31.583 43.2802 31.3503L43.1638 31.2339C42.5862 31.0054 42.3534 30.195 42.5862 29.6174C43.9743 26.4966 48.0177 17.3713 50.2119 12.5177C51.3672 10.0909 50.7895 7.78043 48.9402 6.85798C46.9788 5.93122 45.0131 6.85798 43.8579 9.51325C41.6594 14.3669 39.5816 19.3326 37.271 24.1862C36.9262 24.7638 36.2322 24.9966 35.6545 24.7638C35.0769 24.419 34.8441 23.725 35.0769 23.1474C37.5038 17.3713 40.0429 11.7073 42.5862 6.04762C43.6251 3.6208 43.0474 1.30606 41.1981 0.499993C39.3488 -0.30607 37.271 0.732762 36.1158 3.04319C35.0769 5.12085 34.2665 7.19851 33.344 9.28048C32.4215 11.3625 31.611 13.328 30.6885 15.4057C30.223 16.4445 29.7617 17.3713 29.3005 18.4101C29.0677 18.9877 28.8349 19.449 28.6065 20.0266C28.378 20.6042 27.5676 20.8369 26.9899 20.6042H26.8735C26.2959 20.3757 26.0631 19.5653 26.2959 18.9877C27.5676 16.4488 30.4558 9.97878 31.9559 6.39675C32.9948 4.08632 32.4171 2.00867 30.5678 1.1983C28.7228 0.275849 26.6408 1.31467 25.6019 3.6251C25.257 4.43547 24.9078 5.12517 24.563 5.93554L15.6656 25.9233L14.5103 28.5786C13.9327 29.7338 13.4714 30.7726 13.0102 31.9278L12.0877 33.8934L9.77713 27.307C9.77713 27.0742 9.77713 26.9622 9.66074 26.7294H9.54434L9.08309 25.4578C8.27268 23.1474 5.84573 21.9922 3.65156 22.8025C1.69017 23.4965 0.534896 25.5785 0.879756 27.6562L3.42309 41.0575C3.65587 42.6739 3.88434 44.4067 4.11712 46.0232C5.2724 55.7261 11.0488 61.3858 19.7134 64.5066C29.4169 68.0886 37.0426 64.7394 41.3188 55.3813C42.2457 53.0709 43.2845 50.8768 44.3234 48.5664Z" fill="white"/>
</svg>
