<svg width="141" height="119" viewBox="0 0 141 119" fill="none" xmlns="http://www.w3.org/2000/svg">
<path d="M139.5 33.2727C137.651 24.8371 134.762 17.7937 129.564 12.2461C122.171 4.15958 112.579 -4.57764e-05 101.143 -4.57764e-05H99.6429C87.5124 0.461178 77.4598 5.19841 70.5281 14.0953C67.8727 11.0909 64.6353 8.20283 60.9367 6.00879C53.5438 1.61639 45.1077 -0.232809 35.4042 0.461182C24.6575 1.6164 16.2257 6.35362 9.98805 14.0953C3.28484 22.9922 -0.0689154 32.9279 0.280255 43.3248C0.625114 52.9156 3.6297 61.8083 9.17763 70.2439C15.4153 79.8348 23.2738 87.2273 30.2054 93.1198C40.1417 102.017 51.5781 109.758 66.0191 117.845C67.5192 118.655 68.5624 119 70.0626 119C71.5627 119 72.6059 118.655 74.106 117.845C86.6977 110.914 107.726 94.9689 107.726 94.9689C107.726 94.9689 125.404 78.3304 131.297 69.5542C139.155 58.0021 141.694 46.2171 139.5 33.277V33.2727Z" fill="#605EEF"/>
</svg>
