<svg width="119" height="119" viewBox="0 0 119 119" fill="none" xmlns="http://www.w3.org/2000/svg">
<g clip-path="url(#clip0_43_234)">
<path d="M110.85 108.972V54.5734C110.85 54.4029 110.68 54.2324 110.68 54.2324L89.6309 43.6928C89.4606 43.6928 89.4606 43.5223 89.4606 43.3518V16.323C89.4606 16.1526 89.2904 15.9821 89.2904 15.9821L59.5851 0H59.2446L29.8755 15.8116C29.7053 15.8116 29.7053 15.9821 29.7053 16.1526V43.0152C29.7053 43.1857 29.535 43.3562 29.535 43.3562L8.31573 54.0663C8.14548 54.0663 8.14548 54.2368 8.14548 54.4072V108.976C8.14548 109.147 7.97524 109.488 7.63475 109.488H0.51073C0.340486 109.488 0 109.658 0 109.999V118.668C0 118.838 0.170243 119.009 0.51073 119.009H118.489C118.66 119.009 119 118.838 119 118.497V109.829C119 109.658 118.83 109.317 118.489 109.317H111.361C111.02 109.488 110.855 109.317 110.855 108.976L110.85 108.972ZM74.0121 108.124H44.8133C44.643 108.124 44.3025 107.953 44.3025 107.612V82.9616C44.3025 75.6526 51.0904 69.703 59.4105 69.703C67.7306 69.703 74.5185 75.6526 74.5185 82.9616V107.612C74.5185 107.953 74.178 108.124 74.0078 108.124H74.0121ZM74.0121 44.7113H44.8133C44.643 44.7113 44.3025 44.5408 44.3025 44.1999V22.9502C44.3025 22.7797 44.4728 22.4387 44.8133 22.4387H74.0121C74.1824 22.4387 74.5229 22.6092 74.5229 22.9502V44.1999C74.5229 44.5408 74.1824 44.7113 74.0165 44.7113H74.0121Z" fill="#605EEF"/>
</g>
<defs>
<clipPath id="clip0_43_234">
<rect width="119" height="119" fill="white"/>
</clipPath>
</defs>
</svg>
