<svg width="120" height="120" viewBox="0 0 120 120" fill="none" xmlns="http://www.w3.org/2000/svg">
<path d="M111.35 109.472V55.0734C111.35 54.9029 111.18 54.7324 111.18 54.7324L90.1309 44.1928C89.9606 44.1928 89.9606 44.0223 89.9606 43.8518V16.823C89.9606 16.6526 89.7904 16.4821 89.7904 16.4821L60.0851 0.5H59.7446L30.3755 16.3116C30.2053 16.3116 30.2053 16.4821 30.2053 16.6526V43.5152C30.2053 43.6857 30.035 43.8562 30.035 43.8562L8.81573 54.5663C8.64548 54.5663 8.64548 54.7368 8.64548 54.9072V109.476C8.64548 109.647 8.47524 109.988 8.13475 109.988H1.01073C0.840486 109.988 0.5 110.158 0.5 110.499V119.168C0.5 119.338 0.670243 119.509 1.01073 119.509H118.989C119.16 119.509 119.5 119.338 119.5 118.997V110.329C119.5 110.158 119.33 109.817 118.989 109.817H111.861C111.52 109.988 111.355 109.817 111.355 109.476L111.35 109.472Z" fill="#605EEF"/>
</svg>
