<svg width="23" height="23" viewBox="0 0 23 23" fill="none" xmlns="http://www.w3.org/2000/svg">
<path d="M18.6034 0.698242H3.81034C1.71465 0.698242 0.112061 2.30083 0.112061 4.39652V19.1896C0.112061 21.2853 1.71465 22.8879 3.81034 22.8879H18.6034C20.6991 22.8879 22.3017 21.2853 22.3017 19.1896V4.39652C22.3017 2.30083 20.6991 0.698242 18.6034 0.698242ZM11.2069 8.09479C13.3026 8.09479 14.9052 9.69738 14.9052 11.7931C14.9052 13.8888 13.3026 15.4913 11.2069 15.4913C9.1112 15.4913 7.50861 13.8888 7.50861 11.7931C7.50861 9.69738 9.1112 8.09479 11.2069 8.09479ZM15.8914 5.62928C15.8914 4.76635 16.631 4.14997 17.3707 4.14997C18.1103 4.14997 18.85 4.88962 18.85 5.62928C18.85 6.36893 18.2336 7.10859 17.3707 7.10859C16.5077 7.10859 15.8914 6.49221 15.8914 5.62928ZM18.6034 20.4224H3.81034C3.07068 20.4224 2.57758 19.9293 2.57758 19.1896V11.7931H5.0431C5.0431 15.2448 7.75516 17.9569 11.2069 17.9569C14.6586 17.9569 17.3707 15.2448 17.3707 11.7931H19.8362V19.1896C19.8362 19.9293 19.3431 20.4224 18.6034 20.4224Z" fill="black"/>
</svg>
