<svg width="151" height="47" viewBox="0 0 151 47" fill="none" xmlns="http://www.w3.org/2000/svg">
<g clip-path="url(#clip0_51_291)">
<path d="M38.3831 31.0814C34.1062 26.7669 34.1062 19.7701 38.3831 15.4556L38.2406 17.3396C37.9558 21.1024 39.3151 24.8048 41.9601 27.473L38.3831 31.0814Z" fill="#605EEF"/>
<path d="M23.064 46.5352L0 23.2667L23.064 0L22.867 0.287397C13.9668 13.3019 16.3708 31.0158 28.4119 41.1385L23.064 46.5334V46.5352Z" fill="#605EEF"/>
<path d="M30.6664 38.8659C22.1267 30.2511 22.1267 16.2839 30.6664 7.6709L30.4079 8.15521C25.7916 16.8215 28.2132 27.5935 36.0829 33.4035L30.6664 38.8676V38.8659Z" fill="#605EEF"/>
<path d="M53.7321 15.9165H58.2253L64.3276 32.9758C64.3698 33.1905 64.5404 33.4033 64.7937 33.4033C65.0909 33.4033 65.2597 33.1887 65.3019 32.9758L71.4042 15.9165H75.8535L69.1145 34.1307C68.3091 36.311 66.8266 37.4234 64.7919 37.4234C62.7572 37.4234 61.2325 36.311 60.4271 34.1307L53.7303 15.9165H53.7321Z" fill="#0B0B19"/>
<path d="M77.6789 26.2648C77.6789 20.2365 81.9593 15.3188 88.19 15.3188C94.4207 15.3188 98.3617 19.8941 98.3617 25.7503V27.4605H81.7483C82.2143 31.0512 84.9278 33.5739 88.656 33.5739C91.199 33.5739 93.4869 32.4615 94.7162 30.1535L97.9361 31.8211C96.1142 35.4118 92.7659 37.3366 88.6965 37.3366C82.3814 37.3366 77.6771 32.7188 77.6771 26.263L77.6789 26.2648ZM94.1657 24.7249C93.9969 21.3897 91.5806 19.1242 88.1478 19.1242C84.715 19.1242 82.3409 21.6043 81.9171 24.7249H94.1657Z" fill="#0B0B19"/>
<path d="M102.6 41.3142L106.117 39.3911C107.346 41.6566 109.634 43.1113 112.643 43.1113C117.008 43.1113 119.975 39.9482 119.975 35.0305V33.3629C118.619 35.5432 116.076 37.1683 112.601 37.1683C106.71 37.1683 102.048 32.4652 102.048 26.3093C102.048 20.1533 106.794 15.4077 113.109 15.4077C119.424 15.4077 124.171 20.1107 124.171 26.3536V34.9897C124.171 42.258 119.34 47.0036 112.728 47.0036C108.234 47.0036 104.506 45.0362 102.598 41.3178L102.6 41.3142ZM119.934 26.2649C119.934 22.417 116.883 19.4242 113.069 19.4242C109.254 19.4242 106.203 22.417 106.203 26.2649C106.203 30.1128 109.297 33.1908 113.069 33.1908C116.841 33.1908 119.934 30.1128 119.934 26.2649Z" fill="#0B0B19"/>
<path d="M128.877 26.3497C128.877 20.3641 133.623 15.4038 139.938 15.4038C146.254 15.4038 151 20.1068 151 26.3497V36.8681H147.017V33.1905C145.448 35.7558 142.694 37.3808 139.304 37.3808C133.286 37.3808 128.877 32.4205 128.877 26.3497ZM146.804 26.3923C146.804 22.5444 143.837 19.3812 139.938 19.3812C136.04 19.3812 133.073 22.5444 133.073 26.3923C133.073 30.2402 136.082 33.3608 139.938 33.3608C143.795 33.3608 146.804 30.1976 146.804 26.3923Z" fill="#0B0B19"/>
</g>
<defs>
<clipPath id="clip0_51_291">
<rect width="151" height="47" fill="white"/>
</clipPath>
</defs>
</svg>
