<svg width="119" height="119" viewBox="0 0 119 119" fill="none" xmlns="http://www.w3.org/2000/svg">
<g clip-path="url(#clip0_43_236)">
<path d="M59.5 0C26.69 0 0 26.6943 0 59.5C0 92.3058 26.69 119 59.5 119C92.31 119 119 92.3058 119 59.5C119 26.6943 92.3058 0 59.5 0ZM7.4375 59.5C7.4375 51.2848 14.0972 44.625 22.3125 44.625H29.75C21.5347 44.625 14.875 37.9653 14.875 29.75C14.875 21.5347 21.5347 14.875 29.75 14.875C37.9653 14.875 44.625 21.5347 44.625 29.75C44.625 37.9653 37.9653 44.625 29.75 44.625H37.1875C45.4028 44.625 52.0625 51.2848 52.0625 59.5H7.4375ZM37.1875 111.562C37.1875 103.347 43.8473 96.6875 52.0625 96.6875H59.5C51.2848 96.6875 44.625 90.0278 44.625 81.8125C44.625 73.5973 51.2848 66.9375 59.5 66.9375C67.7152 66.9375 74.375 73.5973 74.375 81.8125C74.375 90.0278 67.7152 96.6875 59.5 96.6875H66.9375C75.1528 96.6875 81.8125 103.347 81.8125 111.562H37.1875ZM66.9375 59.5C66.9375 51.2848 73.5973 44.625 81.8125 44.625H89.25C81.0348 44.625 74.375 37.9653 74.375 29.75C74.375 21.5347 81.0348 14.875 89.25 14.875C97.4653 14.875 104.125 21.5347 104.125 29.75C104.125 37.9653 97.4653 44.625 89.25 44.625H96.6875C104.903 44.625 111.562 51.2848 111.562 59.5H66.9375Z" fill="#605EEF"/>
</g>
<defs>
<clipPath id="clip0_43_236">
<rect width="119" height="119" fill="white"/>
</clipPath>
</defs>
</svg>
