<svg width="174" height="97" viewBox="0 0 174 97" fill="none" xmlns="http://www.w3.org/2000/svg">
<g clip-path="url(#clip0_43_238)">
<path fill-rule="evenodd" clip-rule="evenodd" d="M0 0H174V14.552C153.7 32.0112 153.7 64.0224 174 81.4816V97.004H0V81.4816C20.2999 64.0224 20.2999 32.0112 0 14.552V0ZM77.3316 13.5816C96.6645 13.5816 112.133 29.104 112.133 48.504C112.133 67.904 96.6645 82.456 77.3316 82.456C57.9987 82.456 42.53 66.9336 42.53 48.504C42.53 29.104 57.9987 13.5816 77.3316 13.5816ZM142.096 95.0632H139.194V92.152H142.096V95.0632ZM142.096 89.2448H139.194V86.3336H142.096V89.2448ZM142.096 83.4264H139.194V80.5152H142.096V83.4264ZM142.096 77.608H139.194V74.6968H142.096V77.608ZM142.096 71.7896H139.194V69.8488H142.096V71.7896ZM142.096 66.9376H139.194V64.0264H142.096V66.9376ZM142.096 61.1192H139.194V58.208H142.096V61.1192ZM142.096 55.3008H139.194V52.3896H142.096V55.3008ZM142.096 49.4824H139.194V46.5712H142.096V49.4824ZM142.096 43.664H139.194V41.7232H142.096V43.664ZM142.096 38.812H139.194V35.9008H142.096V38.812ZM142.096 32.9936H139.194V30.0824H142.096V32.9936ZM142.096 27.1752H139.194V24.264H142.096V27.1752ZM142.096 21.3568H139.194V18.4456H142.096V21.3568ZM142.096 16.5048H139.194V13.5936H142.096V16.5048ZM142.096 10.6864H139.194V7.77524H142.096V10.6864ZM142.096 4.86804H139.194V1.95684H142.096V4.86804Z" fill="#605EEF"/>
<path d="M90.7343 53.6126C86.8541 49.7189 86.8541 43.4073 90.7343 39.5137L90.6064 41.2139C90.3467 44.6103 91.5815 47.9505 93.9791 50.3565L90.7343 53.6126Z" fill="#605EEF"/>
<path d="M76.836 67.5593L55.9127 46.5633L76.836 25.5674L76.6562 25.828C68.5842 37.5731 70.762 53.5566 81.6872 62.6912L76.836 67.5593Z" fill="#605EEF"/>
<path d="M83.7332 60.6379C75.9889 52.8667 75.9889 40.2635 83.7332 32.4883L83.4974 32.9254C79.3096 40.7447 81.5074 50.4648 88.6444 55.7057L83.7292 60.6379H83.7332Z" fill="#605EEF"/>
</g>
<defs>
<clipPath id="clip0_43_238">
<rect width="174" height="97" fill="white"/>
</clipPath>
</defs>
</svg>
