<svg width="23" height="19" viewBox="0 0 23 19" fill="none" xmlns="http://www.w3.org/2000/svg">
<path d="M20.0914 3.64434C21.0875 3.03289 21.747 2.19831 22.07 1.13691C21.1603 1.62891 20.1841 1.98643 19.1718 2.19831C18.3051 1.26635 17.208 0.792969 15.8926 0.792969C14.6069 0.792969 13.5208 1.24416 12.6345 2.12188C12.2064 2.53868 11.868 3.03849 11.6399 3.59069C11.4118 4.14289 11.2989 4.73584 11.308 5.33322C11.308 5.71414 11.3561 6.05438 11.4522 6.34285C7.66028 6.21341 4.52167 4.64041 2.04876 1.61275C1.62962 2.35364 1.42005 3.10809 1.42005 3.88843C1.42005 5.49225 2.09684 6.76322 3.44794 7.69642C2.67747 7.63108 1.99822 7.43631 1.42005 7.11702C1.42005 8.26225 1.7566 9.21887 2.43092 10.0608C3.08595 10.8813 4.00907 11.4448 5.0382 11.6523C4.65358 11.751 4.248 11.7978 3.83133 11.7978C3.44671 11.7978 3.17427 11.7658 3.01278 11.6955C3.29631 12.6287 3.83133 13.3856 4.60427 13.965C5.36838 14.5452 6.29786 14.8661 7.25716 14.8809C5.61513 16.1692 3.73764 16.8065 1.6136 16.8065C1.09337 16.8065 0.724777 16.7991 0.501648 16.7597C2.59364 18.1182 4.92232 18.7925 7.49879 18.7925C10.1357 18.7925 12.4656 18.1243 14.4935 16.788C16.5213 15.4591 18.0179 13.8195 18.9795 11.889C19.9304 10.021 20.4255 7.95446 20.4243 5.85837V5.28144C21.3106 4.62799 22.0778 3.82693 22.6925 2.91331C21.8624 3.27311 20.9874 3.51901 20.0914 3.64434Z" fill="black"/>
</svg>
